<svg width="24" height="24" viewBox="0 0 24 24" fill="none" xmlns="http://www.w3.org/2000/svg">
<path d="M22 18.5C22 20 20.5 20 20 20H4C3.5 20 2 20 2 18.5C2 17.7356 2.51938 17.1011 3.09496 16.3978C3.64886 15.7211 4.2548 14.9808 4.5 14C4.75 13 5 11.75 5.25 10.5C5.5 9.25 5.75 8 6 7C6.5 5 8 3.5 10 3C10.8523 2.78693 10.615 2.21064 10.3715 1.61941C10.0436 0.82326 9.7046 0 12 0C14.2954 0 13.9564 0.82326 13.6285 1.61941C13.385 2.21064 13.1477 2.78693 14 3C14.1257 3.03144 14.2495 3.06682 14.3712 3.10604C14.1319 3.69019 14 4.32969 14 5C14 7.64289 16.0505 9.80686 18.6474 9.98776C18.6816 10.1581 18.7158 10.329 18.75 10.5C19 11.75 19.25 13 19.5 14C19.7452 14.9808 20.3511 15.7211 20.905 16.3978C21.4806 17.1011 22 17.7356 22 18.5Z" fill="#0077FF"/>
<path d="M9 21C9 22.6569 10.3431 24 12 24C13.6569 24 15 22.6569 15 21H9Z" fill="#0077FF"/>
<path d="M23 5C23 7.20914 21.2091 9 19 9C16.7909 9 15 7.20914 15 5C15 2.79086 16.7909 1 19 1C21.2091 1 23 2.79086 23 5Z" fill="#FF4400"/>
</svg>
