<svg width="62" height="69" viewBox="0 0 62 69" fill="none" xmlns="http://www.w3.org/2000/svg">
<path fill-rule="evenodd" clip-rule="evenodd" d="M2.44106 9.67092L0.225153 58.4209C0.059568 62.0638 -0.0232243 63.8852 0.63433 65.284C1.21237 66.5136 2.17536 67.5213 3.37745 68.1546C4.74491 68.875 6.56822 68.875 10.2148 68.875H51.7851C55.4317 68.875 57.255 68.875 58.6225 68.1546C59.8246 67.5213 60.7876 66.5136 61.3656 65.284C62.0232 63.8852 61.9404 62.0638 61.7748 58.4209L59.5589 9.67093C59.4063 6.31509 59.3301 4.63718 58.6284 3.36196C58.0108 2.23956 57.0632 1.33406 55.9139 0.768062C54.6081 0.125 52.9285 0.125 49.5692 0.125H12.4307C9.07145 0.125 7.3918 0.125 6.08604 0.768062C4.93675 1.33406 3.98916 2.23956 3.37156 3.36196C2.66987 4.63718 2.5936 6.31509 2.44106 9.67092ZM15.375 15.75V9.5C15.375 7.77411 16.7741 6.375 18.5 6.375C20.2259 6.375 21.625 7.77411 21.625 9.5V15.75C21.625 20.9277 25.8223 25.125 31 25.125C36.1777 25.125 40.375 20.9277 40.375 15.75V9.5C40.375 7.77411 41.7741 6.375 43.5 6.375C45.2259 6.375 46.625 7.77411 46.625 9.5V15.75C46.625 24.3794 39.6294 31.375 31 31.375C22.3706 31.375 15.375 24.3794 15.375 15.75Z" fill="#0077FF"/>
</svg>
