<svg width="76" height="75" viewBox="0 0 76 75" fill="none" xmlns="http://www.w3.org/2000/svg">
<g clip-path="url(#clip0_2_6555)">
<path fill-rule="evenodd" clip-rule="evenodd" d="M75.5 37.5C75.5 51.875 52.375 75 38 75C23.625 75 0.5 51.875 0.5 37.5C0.5 23.125 23.625 0 38 0C52.375 0 75.5 23.125 75.5 37.5Z" fill="#76787A"/>
<path d="M40.3438 28.125C42.5011 28.125 44.25 26.3761 44.25 24.2188C44.25 22.0614 42.5011 20.3125 40.3438 20.3125C38.1864 20.3125 36.4375 22.0614 36.4375 24.2188C36.4375 26.3761 38.1864 28.125 40.3438 28.125Z" fill="white"/>
<path d="M41.125 42.9688C44.25 34.375 42.6875 31.25 38 31.25C35.4801 31.25 31.9442 33.282 30.6694 34.0689C30.3649 34.2568 30.1875 34.5899 30.1875 34.9477C30.1875 35.4346 30.6661 35.7764 31.1314 35.6329C35.0719 34.4177 36.2173 34.9806 33.3125 42.9688C30.1875 51.5625 31.75 54.6875 36.4375 54.6875C38.9574 54.6875 42.4933 52.6555 43.7681 51.8686C44.0726 51.6807 44.25 51.3476 44.25 50.9898C44.25 50.5029 43.7714 50.1611 43.3061 50.3046C39.3656 51.5198 38.2202 50.9569 41.125 42.9688Z" fill="white"/>
</g>
<defs>
<clipPath id="clip0_2_6555">
<rect width="75" height="75" fill="white" transform="translate(0.5)"/>
</clipPath>
</defs>
</svg>
