<svg width="24" height="24" viewBox="0 0 24 24" fill="none" xmlns="http://www.w3.org/2000/svg">
<g clip-path="url(#clip0_2_6519)">
<path fill-rule="evenodd" clip-rule="evenodd" d="M24 12C24 16.6 16.6 24 12 24C7.4 24 0 16.6 0 12C0 7.4 7.4 0 12 0C16.6 0 24 7.4 24 12Z" fill="#0077FF"/>
<path d="M3.96021 19.4036C6.09397 16.5583 9.531 14 12 14C14.469 14 17.9061 16.5583 20.0398 19.4036C17.5638 21.9846 14.4006 24 12 24C9.59941 24 6.43623 21.9846 3.96021 19.4036Z" fill="white"/>
<path d="M16 9C16 10.5333 13.5334 13 12 13C10.4667 13 8.00002 10.5333 8.00002 9C8.00002 7.46667 10.4667 5 12 5C13.5334 5 16 7.46667 16 9Z" fill="white"/>
</g>
<defs>
<clipPath id="clip0_2_6519">
<rect width="24" height="24" fill="white"/>
</clipPath>
</defs>
</svg>
