<svg width="20" height="21" viewBox="0 0 20 21" fill="none" xmlns="http://www.w3.org/2000/svg">
<path d="M0 10.5C0 4.97715 4.47715 0.5 10 0.5C15.5228 0.5 20 4.97715 20 10.5C20 16.0228 15.5228 20.5 10 20.5C4.47715 20.5 0 16.0228 0 10.5Z" fill="#00CC52"/>
<path d="M9 14.5C9 15.0523 9.44772 15.5 10 15.5C10.5523 15.5 11 15.0523 11 14.5V11.5H14C14.5523 11.5 15 11.0523 15 10.5C15 9.94772 14.5523 9.5 14 9.5H11V6.5C11 5.94771 10.5523 5.5 10 5.5C9.44772 5.5 9 5.94771 9 6.5V9.5H6C5.44772 9.5 5 9.94772 5 10.5C5 11.0523 5.44772 11.5 6 11.5H9V14.5Z" fill="white"/>
</svg>
